<?xml version="1.0" standalone="no"?>
<!DOCTYPE svg PUBLIC "-//W3C//DTD SVG 20010904//EN"
 "http://www.w3.org/TR/2001/REC-SVG-20010904/DTD/svg10.dtd">
<svg version="1.0" xmlns="http://www.w3.org/2000/svg"
 width="500.000000pt" height="500.000000pt" viewBox="0 0 500.000000 500.000000"
 preserveAspectRatio="xMidYMid meet">
<metadata>
Created by potrace 1.11, written by Peter Selinger 2001-2013
</metadata>
<g transform="translate(0.000000,500.000000) scale(0.100000,-0.100000)"
fill="#000000" stroke="none">
<path d="M2300 4914 c-19 -2 -78 -9 -130 -15 -658 -75 -1280 -437 -1687 -983
-606 -811 -640 -1927 -85 -2776 145 -223 371 -465 577 -621 718 -539 1657
-655 2485 -307 684 287 1218 896 1414 1609 63 230 80 363 80 634 1 147 -4 275
-12 330 -117 811 -608 1498 -1330 1863 -249 126 -495 205 -772 247 -100 15
-464 28 -540 19z m539 -129 c249 -39 475 -111 706 -225 595 -294 1048 -837
1219 -1464 62 -226 86 -400 86 -631 0 -611 -232 -1180 -659 -1619 -207 -212
-387 -343 -651 -475 -340 -169 -667 -245 -1060 -245 -343 0 -624 56 -927 184
-688 290 -1198 887 -1374 1604 -48 197 -63 329 -63 551 0 203 9 303 45 475
176 858 846 1562 1701 1789 105 28 305 65 408 75 98 9 468 -3 569 -19z"/>
<path d="M2860 3695 c-47 -7 -110 -23 -140 -35 -65 -26 -158 -91 -219 -154
-39 -40 -47 -44 -60 -32 -29 25 -257 125 -343 150 -139 40 -237 51 -463 51
-284 0 -298 -5 -594 -188 -60 -37 -84 -61 -128 -123 -30 -42 -59 -87 -64 -101
-21 -55 -6 -1205 21 -1583 5 -74 15 -218 20 -320 14 -235 30 -290 85 -290 25
0 41 18 70 73 34 68 88 103 275 177 l103 41 201 1 c221 2 280 -7 403 -62 34
-16 88 -36 120 -45 70 -20 139 -62 215 -132 47 -44 64 -53 94 -53 39 0 52 11
146 122 37 43 67 65 146 105 136 70 171 75 446 71 l231 -3 135 -66 c123 -61
140 -73 196 -135 33 -38 66 -79 73 -91 14 -28 74 -32 109 -7 22 15 22 19 22
242 0 125 -7 316 -15 424 -32 420 -36 582 -20 829 8 129 15 348 15 487 0 332
14 303 -224 461 -186 123 -198 129 -355 162 -168 36 -370 46 -501 24z m422
-120 c73 -13 153 -31 177 -39 48 -18 314 -191 350 -230 l23 -24 -6 -324 c-3
-178 -8 -442 -12 -588 -4 -215 -2 -319 15 -548 12 -156 21 -354 21 -440 l0
-156 -52 50 c-63 60 -84 74 -169 109 -35 15 -77 36 -92 47 -51 37 -179 50
-427 46 -213 -4 -229 -6 -299 -31 -81 -29 -160 -71 -232 -122 l-46 -33 -7 257
c-4 141 -14 398 -21 571 -16 351 -18 573 -8 983 5 221 9 277 20 277 7 0 43 29
79 64 36 35 92 78 124 95 119 64 337 78 562 36z m-1324 -29 c107 -22 234 -67
345 -123 l89 -44 -7 -452 c-5 -349 -3 -529 9 -787 9 -184 19 -468 22 -630 l7
-295 -24 21 c-55 49 -145 99 -237 131 -53 19 -133 48 -177 63 -110 40 -248 52
-450 41 l-160 -9 -133 -55 c-73 -31 -155 -72 -182 -91 -61 -44 -55 -58 -71
189 -21 338 -29 600 -35 1163 -6 550 -6 564 13 585 11 12 30 39 42 60 38 62
296 218 402 242 88 20 430 14 547 -9z"/>
<path d="M2953 2873 c-66 -6 -67 -11 -54 -282 14 -283 29 -519 37 -583 6 -52
31 -68 63 -40 19 16 19 26 12 172 -5 85 -7 156 -6 158 2 2 67 -65 146 -147 79
-83 151 -151 160 -151 21 0 39 20 39 45 0 12 -49 77 -121 160 l-120 138 38 19
c51 25 125 99 156 157 32 58 43 133 27 190 -13 49 -75 122 -123 144 -34 16
-182 27 -254 20z m234 -114 c71 -44 81 -119 30 -214 -28 -53 -39 -64 -96 -92
-35 -18 -79 -33 -98 -33 l-33 0 0 180 0 180 81 0 c65 0 88 -4 116 -21z"/>
<path d="M1584 2831 c-72 -44 -121 -148 -109 -231 14 -94 71 -161 193 -226 92
-49 132 -89 138 -140 6 -45 -19 -92 -61 -120 -31 -20 -162 -31 -191 -16 -32
16 -64 -2 -64 -37 0 -43 39 -61 133 -61 127 0 215 39 254 114 23 42 23 160 1
202 -25 47 -87 97 -177 144 -90 47 -116 73 -132 133 -9 32 -7 48 6 83 29 77
79 99 166 73 47 -15 69 -1 69 43 0 24 -6 32 -35 44 -51 21 -153 18 -191 -5z"/>
</g>
</svg>
